Coordinates
version=1
nRows=20
nColumns=34
inDegrees=yes

Units are S.I. units (second, meters, Newtons, ...)
If the header above contains a line with 'inDegrees', this indicates whether rotational values are in degrees (yes) or radians (no).

endheader
time	pelvis_tilt	pelvis_list	pelvis_rotation	pelvis_tx	pelvis_ty	pelvis_tz	hip_flexion_r	hip_adduction_r	hip_rotation_r	knee_angle_r	ankle_angle_r	subtalar_angle_r	mtp_angle_r	hip_flexion_l	hip_adduction_l	hip_rotation_l	knee_angle_l	ankle_angle_l	subtalar_angle_l	mtp_angle_l	lumbar_extension	lumbar_bending	lumbar_rotation	arm_flex_r	arm_add_r	arm_rot_r	elbow_flex_r	pro_sup_r	arm_flex_l	arm_add_l	arm_rot_l	elbow_flex_l	pro_sup_l
      1.68000000	      1.34009184	      3.82271722	      6.91363346	     -0.14382346	      0.89999569	     -0.23100587	     24.65752909	     -2.04146589	     -8.22639052	     -9.56070358	      2.27508335	      1.33941178	     10.31672867	    -19.41016805	      5.11411120	      2.24817055	     -9.72518099	     13.33993943	      8.25771546	      5.41297087	     -7.73505065	     -2.47162770	     -7.64061540	    -10.26801213	    -15.47150935	      4.96187903	     20.67142048	     90.00000000	      3.15160822	    -20.05095798	     12.55581603	     34.61127225	     90.00000000
      1.69000000	      1.17931446	      3.60432250	      6.83255341	     -0.12965489	      0.89855735	     -0.23063927	     24.64789756	     -1.57082652	     -7.19983634	    -10.78338856	      1.68564605	     -0.80771601	      9.90769835	    -19.47108229	      4.70122404	      1.38579936	    -10.88180122	     12.81844570	      9.65856791	      6.77496507	     -7.27633683	     -2.25314308	     -7.59643839	    -10.13883953	    -15.53075236	      5.65370156	     20.13233454	     90.00000000	      2.72693038	    -19.89926415	     12.50212328	     34.26101161	     90.00000000
      1.70000000	      1.12067267	      3.38939869	      6.93585180	     -0.11491982	      0.89740239	     -0.23093584	     24.55333785	     -1.26823571	     -7.26782131	    -12.15078121	      0.85257839	     -1.48786827	      9.72199003	    -19.74160728	      4.29652786	      1.21350667	    -11.88965166	     11.95198807	      9.81412486	      7.03202489	     -6.87857699	     -1.91521795	     -7.73467421	    -10.41125645	    -15.66911503	      5.68304929	     20.58372142	     90.00000000	      2.14090782	    -19.72082270	     12.41169645	     34.24720806	     90.00000000
      1.71000000	      1.02817577	      2.70907626	      6.86500761	     -0.10044771	      0.89659265	     -0.23042187	     24.08049394	     -0.24406266	     -6.66445265	    -11.93501209	     -3.24391075	     -5.12744067	      8.73577330	    -19.61613085	      3.37501050	      0.25467774	    -13.36223697	     11.02366717	     11.04629925	      9.18614751	     -6.41522336	     -1.14136773	     -7.57945013	    -10.48454867	    -15.81728131	      5.91324316	     20.57249436	     90.00000000	      1.73827110	    -19.41603777	     12.42797205	     33.71163193	     90.00000000
      1.72000000	      1.03154823	      2.06055958	      6.73998299	     -0.08594606	      0.89615856	     -0.23004957	     23.78608779	      0.60978881	     -6.31583658	    -12.32273302	     -5.18354659	     -6.77531211	      9.75865074	    -19.57264505	      2.53622466	     -0.41324543	    -14.81178711	      9.47208997	     11.60252946	     13.09979416	     -6.05883572	     -0.35400200	     -7.30437215	    -10.65905700	    -15.94462284	      5.84431155	     20.79409558	     90.00000000	      1.44426519	    -19.08322979	     12.70831425	     33.15145394	     90.00000000
      1.73000000	      0.97296772	      1.41913831	      6.62350268	     -0.07182886	      0.89604704	     -0.23004727	     24.07528859	      1.26446707	     -6.37242395	    -14.00723540	     -6.22036259	     -6.65821431	      9.71989605	    -19.29027164	      1.81092313	     -0.65462107	    -16.51204408	      8.00613885	     11.17728319	     13.25436734	     -5.72806606	      0.47795912	     -7.12383869	    -10.71364724	    -16.19081086	      5.69555287	     21.07169860	     90.00000000	      0.96591819	    -18.70334422	     12.45673524	     32.85507477	     90.00000000
      1.74000000	      0.80675487	      0.61691445	      6.39612377	     -0.05777064	      0.89607053	     -0.22988598	     24.59162534	      2.17276515	     -6.07524427	    -16.09167737	     -6.80339391	     -7.03227513	      9.69629429	    -18.67475013	      0.97634472	     -1.00396121	    -18.52830692	      6.25969445	     10.83530456	     13.64810073	     -5.26435767	      1.47091996	     -6.81886572	    -10.69011259	    -16.39309786	      5.57853763	     21.12836656	     90.00000000	      0.54249773	    -18.17500532	     12.24295799	     32.15414617	     90.00000000
      1.75000000	      0.55324764	     -0.19373646	      6.09171860	     -0.04347939	      0.89600167	     -0.22946001	     25.01917763	      3.17424731	     -5.37933205	    -17.75492870	     -7.27844701	     -7.57306083	      9.72887022	    -17.81831967	      0.14322926	     -1.42357145	    -20.76255906	      4.17741953	     10.52178606	     14.34863111	     -4.64832065	      2.41779224	     -6.42665866	    -10.64544574	    -16.63563226	      5.64740477	     21.16747029	     90.00000000	      0.13833459	    -17.67271022	     12.14377168	     31.23573831	     90.00000000
      1.76000000	      0.26877837	     -0.81090392	      5.71501035	     -0.02972064	      0.89592586	     -0.22885030	     25.25247695	      4.06472595	     -4.42968632	    -18.89733392	     -8.51772247	     -8.81618896	     11.94928466	    -16.74657386	     -0.43988167	     -1.85691709	    -22.96854534	     -0.44796671	      8.76241200	     35.44750367	     -4.12688678	      3.11759083	     -6.02450570	    -10.41033410	    -16.91508319	      6.68946823	     20.90816935	     90.00000000	     -0.26031248	    -17.39826953	     12.66843323	     30.49648306	     90.00000000
      1.77000000	      0.38099854	     -1.40813458	      5.50133603	     -0.01577360	      0.89637532	     -0.22842200	     24.92596140	      4.86072439	     -4.14708964	    -20.00998746	     -8.01499466	     -8.84553438	     11.95229295	    -15.87301493	     -1.15161350	     -2.05183939	    -25.72870171	     -2.84294343	      8.26837119	     35.35871129	     -4.12512106	      3.83889342	     -5.78034967	    -10.36492225	    -17.16003097	      6.52557219	     21.46846818	     90.00000000	     -0.86423841	    -17.12239759	     12.47250465	     30.46001983	     90.00000000
      1.78000000	      0.20730035	     -2.19091292	      5.16683582	     -0.00151775	      0.89674898	     -0.22767167	     24.67426125	      5.90666097	     -3.90468849	    -20.73577434	     -7.20605056	     -8.97694466	     11.92800096	    -14.62861633	     -2.11394061	     -2.68968702	    -28.37642902	     -6.40454284	      7.74697495	     35.44741748	     -3.66396799	      4.72857201	     -5.46149288	    -10.32614338	    -17.38249187	      6.33813295	     21.78350786	     90.00000000	     -1.58062430	    -16.76640900	     12.26984406	     29.91899534	     90.00000000
      1.79000000	      0.11325181	     -2.83687073	      4.89388336	      0.01220695	      0.89733086	     -0.22680189	     24.22415530	      6.85733367	     -3.40233589	    -21.29332074	     -6.50963758	     -9.05658767	     11.76835414	    -13.31882719	     -2.97903763	     -2.91694978	    -31.17807351	     -9.83764941	      7.56234344	     35.75530007	     -3.40312567	      5.44120142	     -5.16438822	    -10.20399321	    -17.53863297	      6.18524529	     22.17926696	     90.00000000	     -2.10611063	    -16.47813684	     12.15885386	     29.35420381	     90.00000000
      1.80000000	     -0.03050255	     -3.50032108	      4.66362220	      0.02522738	      0.89803023	     -0.22606431	     23.73497692	      7.79941029	     -2.88736727	    -21.68982460	     -5.03618941	     -9.06179936	      7.20062042	    -11.77747819	     -3.82093105	     -2.95187938	    -33.99003917	    -13.95254449	      6.39186916	     46.45658954	     -3.19684756	      6.19122744	     -4.74086904	    -10.10728409	    -17.67874031	      5.77966001	     22.62178394	     90.00000000	     -2.27968828	    -16.17296587	     12.55256668	     28.37409253	     90.00000000
      1.81000000	      0.12004880	     -4.16908560	      4.67076491	      0.03821696	      0.89933737	     -0.22563589	     22.77045375	      8.64637214	     -2.78365821	    -21.79437844	     -3.95537820	     -9.05199586	      7.37914683	    -10.36633766	     -4.76559022	     -2.79170482	    -37.07422872	    -16.73317983	      6.15697474	     46.03416207	     -3.34769668	      6.96224413	     -4.64807466	     -9.85026500	    -17.84643706	      5.69875378	     23.17751426	     90.00000000	     -2.74938066	    -15.95519552	     12.50304868	     28.03337934	     90.00000000
      1.82000000	      0.24593241	     -4.81852985	      4.75966629	      0.05075111	      0.90076352	     -0.22568345	     21.81527818	      9.41726042	     -2.76848829	    -21.83095992	     -3.06820772	     -8.80015632	      5.87693196	     -8.66230873	     -5.62489525	     -2.39529328	    -40.46030611	    -18.08994190	      5.47793564	     36.62181567	     -3.49795299	      7.76403053	     -4.43693505	     -9.75273535	    -18.06685409	      5.29394042	     23.88443220	     90.00000000	     -2.74503358	    -15.63281946	     13.29731017	     26.95803041	     90.00000000
      1.83000000	      0.45578608	     -5.40852827	      4.93234395	      0.06295274	      0.90228160	     -0.22588623	     20.65689532	     10.12578437	     -2.76618039	    -21.61784105	     -2.03730609	     -8.80085882	      6.04236097	     -6.95040121	     -6.42809108	     -1.93885547	    -43.69845171	    -18.82656350	      4.11343766	     36.39436220	     -3.79649117	      8.48705128	     -4.37685728	     -9.43838331	    -18.29932521	      5.26727753	     24.44207773	     90.00000000	     -3.01406382	    -15.38350265	     13.27131495	     26.62129932	     90.00000000
      1.84000000	      0.54958917	     -5.82453540	      5.25558981	      0.07475732	      0.90367714	     -0.22644227	     19.68026716	     10.55802156	     -3.00878924	    -21.47584808	     -1.42117476	     -8.71124011	      6.03981526	     -4.98056220	     -6.92608528	     -1.13207945	    -46.91526622	    -18.08879217	      2.75919824	     36.36048832	     -3.98584223	      8.99905045	     -4.36299900	     -9.19016124	    -18.51395060	      5.28730692	     25.05087154	     90.00000000	     -2.98887024	    -15.13943817	     13.57113827	     25.75372202	     90.00000000
      1.85000000	      0.58480640	     -6.10884042	      5.63114126	      0.08645921	      0.90510166	     -0.22696562	     18.62966381	     10.85037915	     -3.29912493	    -21.07804002	     -0.60684312	     -8.48586305	      5.98487079	     -2.90559963	     -7.25953164	     -0.35336234	    -49.80234299	    -17.27186694	      1.58741039	     36.28089029	     -4.08935784	      9.33469545	     -4.34659168	     -9.03229131	    -18.70213856	      5.34901856	     25.75143471	     90.00000000	     -2.98643305	    -15.03204274	     14.35493988	     24.99301666	     90.00000000
      1.86000000	      0.58250315	     -6.22332462	      5.91522237	      0.09785938	      0.90659240	     -0.22743041	     17.58364270	     10.98468853	     -3.54453378	    -20.61949542	      0.20867362	     -8.21933589	      5.88327619	     -0.79729062	     -7.32833425	      0.31197837	    -52.32499500	    -16.57321163	      0.21271597	     36.21411101	     -4.21348381	      9.48790295	     -4.21707752	     -8.82576172	    -18.87074375	      5.38991037	     26.44965644	     90.00000000	     -2.86450166	    -14.90986831	     15.18833925	     24.09564745	     90.00000000
      1.87000000	      0.59658951	     -6.25016468	      6.26713253	      0.10902502	      0.90822850	     -0.22792799	     16.48394792	     11.01554690	     -3.97018864	    -20.04183799	      0.87164080	     -7.88357854	      5.82319459	      1.30090725	     -7.24791512	      1.06059472	    -54.48620788	    -15.93513455	     -1.13701518	     36.16402711	     -4.40007269	      9.52228406	     -4.09001064	     -8.56900818	    -18.94546858	      5.39756229	     27.04979383	     90.00000000	     -2.74977810	    -14.79009497	     15.84060564	     23.40388540	     90.00000000
